HIERARCHY
ROOT Hips
{
	OFFSET -0.001795 -0.223333 0.028219
	CHANNELS 6 Xposition Yposition Zposition Zrotation Yrotation Xrotation 
	JOINT LeftUpLeg
	{
		OFFSET 0.069520 -0.091406 -0.006815
		CHANNELS 3 Zrotation Yrotation Xrotation
		JOINT LeftLeg
		{
			OFFSET 0.034277 -0.375199 -0.004496
			CHANNELS 3 Zrotation Yrotation Xrotation
			JOINT LeftFoot
			{
				OFFSET -0.013596 -0.397961 -0.043693
				CHANNELS 3 Zrotation Yrotation Xrotation
				JOINT LeftToe
				{
					OFFSET 0.026358 -0.055791 0.119288
					CHANNELS 3 Zrotation Yrotation Xrotation
					End Site
					{
						OFFSET 0.000000 0.000000 0.000000
					}
				}
			}
		}
	}
	JOINT RightUpLeg
	{
		OFFSET -0.067670 -0.090522 -0.004320
		CHANNELS 3 Zrotation Yrotation Xrotation
		JOINT RightLeg
		{
			OFFSET -0.038290 -0.382569 -0.008850
			CHANNELS 3 Zrotation Yrotation Xrotation
			JOINT RightFoot
			{
				OFFSET 0.015774 -0.398415 -0.042312
				CHANNELS 3 Zrotation Yrotation Xrotation
				JOINT RightToe
				{
					OFFSET -0.025372 -0.048144 0.123348
					CHANNELS 3 Zrotation Yrotation Xrotation
					End Site
					{
						OFFSET 0.000000 0.000000 0.000000
					}
				}
			}
		}
	}
	JOINT Spine
	{
		OFFSET -0.002533 0.108963 -0.026696
		CHANNELS 3 Zrotation Yrotation Xrotation
		JOINT Spine1
		{
			OFFSET 0.005487 0.135180 0.001092
			CHANNELS 3 Zrotation Yrotation Xrotation
			JOINT Spine2
			{
				OFFSET 0.001457 0.052922 0.025425
				CHANNELS 3 Zrotation Yrotation Xrotation
				JOINT Neck
				{
					OFFSET -0.002778 0.213870 -0.042857
					CHANNELS 3 Zrotation Yrotation Xrotation
					JOINT Head
					{
						OFFSET 0.005152 0.064970 0.051349
						CHANNELS 3 Zrotation Yrotation Xrotation
						End Site
						{
							OFFSET 0.000000 0.000000 0.000000
						}
					}
				}
				JOINT LeftShoulder
				{
					OFFSET 0.078845 0.121749 -0.034090
					CHANNELS 3 Zrotation Yrotation Xrotation
					JOINT LeftArm
					{
						OFFSET 0.090977 0.030469 -0.008868
						CHANNELS 3 Zrotation Yrotation Xrotation
						JOINT LeftForeArm
						{
							OFFSET 0.259612 -0.012772 -0.027456
							CHANNELS 3 Zrotation Yrotation Xrotation
							JOINT LeftHand
							{
								OFFSET 0.249234 0.008986 -0.001171
								CHANNELS 3 Zrotation Yrotation Xrotation
								End Site
								{
									OFFSET 0.000000 0.000000 0.000000
								}
							}
						}
					}
				}
				JOINT RightShoulder
				{
					OFFSET -0.081759 0.118833 -0.038615
					CHANNELS 3 Zrotation Yrotation Xrotation
					JOINT RightArm
					{
						OFFSET -0.096012 0.032551 -0.009143
						CHANNELS 3 Zrotation Yrotation Xrotation
						JOINT RightForeArm
						{
							OFFSET -0.253742 -0.013329 -0.021401
							CHANNELS 3 Zrotation Yrotation Xrotation
							JOINT RightHand
							{
								OFFSET -0.255298 0.007772 -0.005559
								CHANNELS 3 Zrotation Yrotation Xrotation
								End Site
								{
									OFFSET 0.000000 0.000000 0.000000
								}
							}
						}
					}
				}
			}
		}
	}
}
MOTION
Frames: 5
Frame Time: 0.050000
0.000000 0.884756 0.000000 0.934809 1.137074 9.433547 7.954787 -1.206466 -38.067037 -19.746802 7.097079 33.669036 13.405175 26.857775 3.394861 0.000000 0.000000 0.000000 -2.546848 3.151215 -40.700416 12.027050 -3.809885 33.421857 -7.210526 -18.120566 0.150797 0.000000 0.000000 0.000000 2.148118 -2.912637 41.654028 0.343116 -0.202266 1.204536 -6.161039 2.568506 7.375321 13.792820 -6.052606 -19.615673 0.000000 0.000000 0.000000 -21.278418 -38.014481 19.621805 -27.524498 -32.322880 3.213903 16.390028 -16.287684 -1.664810 0.000000 0.000000 0.000000 22.830861 25.133285 14.940277 38.032221 34.091948 5.860123 -12.127807 22.650372 -1.262792 0.000000 0.000000 0.000000 
-0.001338 0.873797 0.006114 0.867717 2.294157 10.451532 10.436986 -0.666527 -40.575634 -23.969322 8.960320 34.831396 14.440047 28.650602 4.294340 0.000000 0.000000 0.000000 -2.885831 3.027863 -43.347785 13.871049 -5.218784 37.411178 -7.999600 -19.989118 -0.728026 0.000000 0.000000 0.000000 1.309199 -2.816131 42.219728 2.033505 -1.058632 2.105836 -7.307709 4.900963 5.786708 15.793256 -5.929294 -23.052616 0.000000 0.000000 0.000000 -18.683078 -39.412797 18.766543 -28.293374 -34.481231 4.029529 15.468915 -15.505800 -1.485579 0.000000 0.000000 0.000000 24.715107 23.825485 15.830260 35.319419 34.701096 5.155200 -12.766828 24.081234 -1.397655 0.000000 0.000000 0.000000 
-0.001815 0.862749 0.011865 1.227125 2.784637 9.939959 11.399997 -0.438815 -41.461071 -25.402045 10.037078 37.277998 14.782452 29.594310 2.364258 0.000000 0.000000 0.000000 -4.054857 2.578211 -44.502477 16.183466 -6.994774 41.435185 -8.895703 -22.231039 -2.995095 0.000000 0.000000 0.000000 1.075104 -2.906371 43.681353 2.256896 -1.186341 2.335743 -7.514486 4.498734 5.329794 13.374608 -5.226884 -20.416702 0.000000 0.000000 0.000000 -18.651493 -40.058017 19.215769 -26.916445 -35.303767 3.904373 17.071609 -12.938428 -1.401961 0.000000 0.000000 0.000000 24.439458 25.128132 16.423288 32.829034 35.127913 4.795343 -14.050125 24.687300 -1.727217 0.000000 0.000000 0.000000 
-0.001258 0.846414 0.017003 0.818471 2.650513 9.035078 13.871479 0.454922 -42.646528 -29.389023 12.865655 40.610832 15.409705 30.868345 1.132824 0.000000 0.000000 0.000000 -4.631052 2.545314 -48.059075 17.926735 -8.986375 48.001032 -9.414831 -23.280708 -1.443646 0.000000 0.000000 0.000000 0.980079 -3.060085 46.417872 1.604877 -0.910126 3.091848 -7.491408 4.201449 4.813065 13.121306 -4.391887 -23.647863 0.000000 0.000000 0.000000 -15.888894 -41.178021 19.137244 -25.082118 -37.577680 3.864280 17.803215 -11.272245 -1.281479 0.000000 0.000000 0.000000 22.348025 26.922414 16.751348 32.008525 36.803067 5.235749 -15.499994 27.017309 -2.249243 0.000000 0.000000 0.000000 
0.000725 0.823996 0.020650 0.409080 3.373060 8.303686 15.618011 0.961897 -43.749059 -31.822468 14.776201 43.448150 15.812917 32.492365 -2.609104 0.000000 0.000000 0.000000 -5.844250 1.955696 -50.886268 19.866783 -11.400365 53.183408 -9.458523 -23.459845 -3.414821 0.000000 0.000000 0.000000 0.698683 -3.292369 48.866532 1.384972 -0.776858 2.478516 -7.206030 4.189143 4.861038 12.742379 -4.067859 -24.216958 0.000000 0.000000 0.000000 -13.868474 -43.151851 19.592827 -22.884309 -38.828718 3.481919 18.922743 -9.156255 -1.116222 0.000000 0.000000 0.000000 20.919709 28.518288 17.324269 30.412890 37.878706 5.160569 -17.793978 28.304177 -2.901771 0.000000 0.000000 0.000000 
